<svg width="80" height="45" viewBox="0 0 120 56" fill="none" xmlns="http://www.w3.org/2000/svg">
    <path fill-rule="evenodd" clip-rule="evenodd" d="M10.1744 24.8578C16.6686 24.8578 19.8075 21.5436 19.8075 17.1483C19.8075 8.17786 5.98905 10.7358 5.98905 6.917C5.98905 5.47591 7.21579 4.50332 9.4166 4.50332C11.8701 4.50332 14.4678 5.33188 16.4159 7.13325L19.2665 3.38628C16.8849 1.18884 13.7098 0.0357958 9.88573 0.0357958C4.22116 0.0357958 0.757817 3.35006 0.757817 7.34908C0.757817 16.3915 14.612 13.4735 14.612 17.7246C14.612 19.0935 13.2411 20.3903 10.4269 20.3903C7.10756 20.3903 4.47384 18.9134 2.77817 17.1481L0 21.0391C2.23681 23.3087 5.55613 24.8578 10.1744 24.8578ZM37.0766 24.4255V4.8996H45.0725V0.39628H23.9484V4.8996H31.9174V24.4255H37.0766ZM71.8606 24.4255L62.5882 0.39628H56.1661L46.8577 24.4255H52.7025L54.2179 20.3545H64.5366L66.0158 24.4255H71.8606ZM63.1294 15.8514H55.6249L59.3772 5.51191L63.1294 15.8514ZM86.0086 24.8578C91.3122 24.8578 94.3426 21.9396 96.0745 18.9494L91.6729 16.824C90.6628 18.8054 88.498 20.3185 86.0086 20.3185C81.6429 20.3185 78.4681 16.9682 78.4681 12.4289C78.4681 7.88959 81.6429 4.53911 86.0083 4.53911C88.498 4.53911 90.6628 6.08844 91.6729 8.03383L96.0745 5.87219C94.3789 2.88219 91.3122 0 86.0086 0C78.7926 0 73.2004 5.04362 73.2004 12.4289C73.2004 19.8142 78.7928 24.8578 86.0086 24.8578ZM120 24.4255L109.79 11.6724L119.351 0.39628H113.037L104.522 11.1321V0.39628H99.3989V24.4255H104.522V17.0403L106.398 14.8066L113.686 24.4255H120ZM62.5855 55.2575L71.8507 31.2777H66.0103L59.3769 49.7209L52.7073 31.2777H46.867L56.1682 55.2575H62.5855ZM95.0215 55.2699V50.7398H75.7082V45.3178L95.0215 45.4044V40.8293H75.7082V35.7663L95.0215 35.7726V31.2777H75.7082V55.2286L95.0215 55.2699ZM43.0044 55.2699V50.7398H23.6911V45.3178L43.0044 45.4044V40.8293H23.6911V35.7663L43.0044 35.7726V31.2777H23.6911V55.2286L43.0044 55.2699Z" fill="#FFFFFF"/>
    <path fill-rule="evenodd" clip-rule="evenodd" d="M62.5855 55.2574L71.8507 31.2776H66.0103L59.3769 49.7208L52.7073 31.2776H46.867L56.1682 55.2574H62.5855ZM118.712 55.2574V50.7633H104.313V31.2778H99.3991V55.2574H118.712ZM19.3133 55.2574V50.7633H4.91328V31.2778H0V55.2574H19.3133Z" fill="#FFFFFF"/>
</svg>